# 3ds Max Wavefront OBJ Exporter v0.97b - (c)2007 guruware
# File Created: 29.11.2019 12:12:56

#
# object GeoSphere001
#

v  0.00000000 1.00000000 -0.00000000
v  0.45970082 0.88807386 -0.00000000
v  -0.22985041 0.88807386 -0.39811260
v  0.81649649 0.57735020 -0.00000000
v  0.28867510 0.81649649 -0.49999997
v  -0.40824825 0.57735020 -0.70710677
v  0.99051762 0.13738546 -0.00000000
v  0.74543238 0.25167644 -0.61724353
v  0.16183232 0.25167644 -0.95418513
v  -0.49525881 0.13738546 -0.85781348
v  0.94280905 -0.33333334 -0.00000000
v  0.76066715 -0.51272964 -0.39811260
v  0.40824825 -0.57735026 -0.70710677
v  -0.03555799 -0.51272964 -0.85781348
v  -0.47140452 -0.33333334 -0.81649661
v  -0.22985041 0.88807386 0.39811260
v  -0.57735020 0.81649649 -0.00000000
v  -0.40824825 0.57735020 0.70710677
v  -0.90726471 0.25167644 -0.33694163
v  -0.90726471 0.25167644 0.33694163
v  -0.49525881 0.13738546 0.85781348
v  -0.72510928 -0.51272970 -0.45970091
v  -0.81649667 -0.57735032 -0.00000000
v  -0.72510928 -0.51272970 0.45970091
v  -0.47140452 -0.33333334 0.81649661
v  0.28867510 0.81649649 0.49999997
v  0.16183232 0.25167644 0.95418513
v  0.74543238 0.25167644 0.61724353
v  -0.03555799 -0.51272964 0.85781348
v  0.40824825 -0.57735026 0.70710677
v  0.76066715 -0.51272964 0.39811260
v  0.57735020 -0.81649655 -0.00000000
v  -0.06513868 -0.93926960 0.33694163
v  -0.06513868 -0.93926960 -0.33694163
# 34 vertices

vn 0.00000001 1.00000000 0.00000001
vn 0.45961946 0.88811594 -0.00000000
vn -0.22980973 0.88811594 -0.39804211
vn 0.80869126 0.58823329 -0.00000000
vn 0.30291975 0.79558694 -0.52467233
vn -0.40434563 0.58823329 -0.70034719
vn 0.99419183 0.10762233 0.00000001
vn 0.73725855 0.22229947 -0.63799119
vn 0.18388736 0.22229947 -0.95748025
vn -0.49709588 0.10762233 -0.86099541
vn 0.94280905 -0.33333337 0.00000004
vn 0.77212375 -0.47398645 -0.42327508
vn 0.42597026 -0.54243892 -0.72409207
vn -0.04076513 -0.48952702 -0.87103474
vn -0.47140446 -0.33333328 -0.81649661
vn -0.22980973 0.88811600 0.39804205
vn -0.60583949 0.79558688 -0.00000001
vn -0.40434563 0.58823329 0.70034719
vn -0.92114586 0.22229956 -0.31948906
vn -0.92114586 0.22229955 0.31948900
vn -0.49709594 0.10762235 0.86099541
vn -0.72698921 -0.51405901 -0.45522520
vn -0.81649661 -0.57735026 -0.00000002
vn -0.72698921 -0.51405907 0.45522517
vn -0.47140452 -0.33333331 0.81649661
vn 0.30291972 0.79558688 0.52467239
vn 0.18388732 0.22229947 0.95748025
vn 0.73725855 0.22229949 0.63799119
vn -0.04076514 -0.48952702 0.87103474
vn 0.42597023 -0.54243898 0.72409207
vn 0.77212369 -0.47398645 0.42327511
vn 0.54814029 -0.83638644 -0.00000002
vn -0.09746261 -0.94256449 0.31948903
vn -0.09746259 -0.94256449 -0.31948900
# 34 vertex normals

vt 0.66666663 1.00000000 1.00000000
vt 0.50000000 0.84795666 1.00000000
vt 0.83333331 0.84795666 1.00000000
vt 0.50000000 0.69591326 0.99999988
vt 0.66666669 0.80408674 0.99999988
vt 0.83333331 0.69591326 0.99999994
vt 0.50000000 0.54386991 0.99999994
vt 0.61007196 0.58098185 1.00000000
vt 0.72326130 0.58098185 0.99999994
vt 0.83333331 0.54386991 1.00000000
vt 0.50000000 0.39182654 1.00000000
vt 0.57673985 0.32863432 0.99999994
vt 0.66666669 0.30408671 0.99999994
vt 0.75659347 0.32863432 1.00000000
vt 0.83333331 0.39182654 1.00000000
vt -0.00000001 1.00000000 1.00000000
vt -0.16666669 0.84795666 1.00000000
vt 0.16666667 0.84795666 1.00000000
vt 1.00000000 0.80408674 0.99999988
vt 0.00000000 0.80408674 0.99999988
vt 0.16666667 0.69591326 0.99999994
vt 0.94340527 0.58098185 0.99999994
vt -0.05659473 0.58098185 0.99999994
vt 0.05659468 0.58098185 0.99999994
vt 0.16666667 0.54386991 1.00000000
vt 0.91007322 0.32863432 1.00000000
vt 1.00000000 0.30408671 1.00000012
vt 0.00000000 0.30408671 1.00000012
vt 0.08992684 0.32863432 1.00000000
vt 0.16666667 0.39182654 1.00000000
vt 0.33333334 1.00000000 1.00000000
vt 0.33333334 0.80408674 0.99999988
vt 0.27673864 0.58098185 0.99999994
vt 0.38992801 0.58098185 1.00000000
vt 0.24340652 0.32863432 1.00000000
vt 0.33333334 0.30408671 0.99999994
vt 0.42326018 0.32863432 0.99999994
vt 0.50000000 0.19591323 0.99999994
vt 0.21960659 0.11150416 1.00000000
vt -0.21960658 0.11150416 1.00000000
vt 0.78039342 0.11150416 1.00000000
# 41 texture coords

o GeoSphere001
g GeoSphere001
s 1
f 1/1/1 2/2/2 3/3/3 
f 2/2/2 4/4/4 5/5/5 
f 2/2/2 5/5/5 3/3/3 
f 3/3/3 5/5/5 6/6/6 
f 4/4/4 7/7/7 8/8/8 
f 4/4/4 8/8/8 5/5/5 
f 5/5/5 8/8/8 9/9/9 
f 5/5/5 9/9/9 6/6/6 
f 6/6/6 9/9/9 10/10/10 
f 7/7/7 11/11/11 12/12/12 
f 7/7/7 12/12/12 8/8/8 
f 8/8/8 12/12/12 13/13/13 
f 8/8/8 13/13/13 9/9/9 
f 9/9/9 13/13/13 14/14/14 
f 9/9/9 14/14/14 10/10/10 
f 10/10/10 14/14/14 15/15/15 
f 1/16/1 3/17/3 16/18/16 
f 3/3/3 6/6/6 17/19/17 
f 3/17/3 17/20/17 16/18/16 
f 16/18/16 17/20/17 18/21/18 
f 6/6/6 10/10/10 19/22/19 
f 6/6/6 19/22/19 17/19/17 
f 17/20/17 19/23/19 20/24/20 
f 17/20/17 20/24/20 18/21/18 
f 18/21/18 20/24/20 21/25/21 
f 10/10/10 15/15/15 22/26/22 
f 10/10/10 22/26/22 19/22/19 
f 19/22/19 22/26/22 23/27/23 
f 19/23/19 23/28/23 20/24/20 
f 20/24/20 23/28/23 24/29/24 
f 20/24/20 24/29/24 21/25/21 
f 21/25/21 24/29/24 25/30/25 
f 1/31/1 16/18/16 2/2/2 
f 16/18/16 18/21/18 26/32/26 
f 16/18/16 26/32/26 2/2/2 
f 2/2/2 26/32/26 4/4/4 
f 18/21/18 21/25/21 27/33/27 
f 18/21/18 27/33/27 26/32/26 
f 26/32/26 27/33/27 28/34/28 
f 26/32/26 28/34/28 4/4/4 
f 4/4/4 28/34/28 7/7/7 
f 21/25/21 25/30/25 29/35/29 
f 21/25/21 29/35/29 27/33/27 
f 27/33/27 29/35/29 30/36/30 
f 27/33/27 30/36/30 28/34/28 
f 28/34/28 30/36/30 31/37/31 
f 28/34/28 31/37/31 7/7/7 
f 7/7/7 31/37/31 11/11/11 
f 11/11/11 31/37/31 12/12/12 
f 31/37/31 30/36/30 32/38/32 
f 31/37/31 32/38/32 12/12/12 
f 12/12/12 32/38/32 13/13/13 
f 30/36/30 29/35/29 33/39/33 
f 30/36/30 33/39/33 32/38/32 
f 32/38/32 33/39/33 34/40/34 
f 32/38/32 34/41/34 13/13/13 
f 13/13/13 34/41/34 14/14/14 
f 29/35/29 25/30/25 24/29/24 
f 29/35/29 24/29/24 33/39/33 
f 33/39/33 24/29/24 23/28/23 
f 33/39/33 23/28/23 34/40/34 
f 34/41/34 23/27/23 22/26/22 
f 34/41/34 22/26/22 14/14/14 
f 14/14/14 22/26/22 15/15/15 
# 64 faces

